<?xml version="1.0" standalone="yes"?>
<svg width="215" height="55">
<path style="fill:#000000; stroke:none;" d="M0 0L0 55L15 55L15 54C6.85152 46.0203 15.9988 21.7329 16 11C12.8146 12.5477 8.57898 17.8025 5.12269 17.8009C1.29729 17.7992 2.04445 13.0319 3.26852 10.9144C9.1656 0.712967 21.3708 -2.21602 27 9C35.1668 3.32112 47.857 -4.56729 51 11L52 11C57.4896 1.58788 73.824 -4.22808 76.4776 11C78.1596 20.6523 68.4391 32.8147 71.8318 41.848C74.4269 48.7575 81.1089 39.014 84.7654 39.6296C93.9349 41.1733 77.8791 53.1448 75 54L75 55L215 55L215 0L0 0z"/>
<path style="fill:#ff0000; stroke:none;" d="M16 11C15.996 17.0944 15.2286 22.9892 14.2461 29C13.647 32.6657 12.9548 36.3231 12.4282 40C11.7389 44.8138 14.7084 63.1171 21.8248 51.7716C28.8452 40.5792 22.7226 14.8222 41 12C40.9664 24.1608 35.8523 35.9019 36.0833 47.9954C36.1834 53.2338 41.8592 57.3066 45.9907 52.4853C48.8038 49.2026 48.5014 43.0685 49.2608 39C51.2053 28.5828 54.3504 16.6109 64 11C65.9568 20.004 60.7463 29.0034 60.0903 38C59.6939 43.4364 59.9715 49.5447 65.1049 52.7215C72.3801 57.2235 87.1965 52.8791 87.4722 43.0193C87.7865 31.7815 74.4577 49.411 72.0316 40.9259C69.1679 30.9103 79.2668 19.5517 76.2755 9.00077C72.5503 -4.13853 55.8783 1.07896 52 11L51 11C49.2897 -4.34727 34.2672 1.90769 27 9C22.7291 -3.11113 7.49252 0.553196 2.72839 11.0039C-0.052701 17.1045 4.77754 19.9996 9.57407 16.037C11.6995 14.2812 13.7323 12.5812 16 11z"/>
<path style="fill:#fe0000; stroke:none;" d="M136 12L125 12C123.743 -4.65648 104.307 4.94686 104 18L103 18L102 12C98.044 12.3047 96.3843 13.2324 95 17L94 17C91.3992 8.76585 80.0395 12.9739 81.412 20.9807C82.7864 28.9981 98.3358 24.9471 104 26.0849C106.831 26.6535 109.858 28.6721 112.697 26.9568C116.61 24.5922 118.533 18.9138 123 16C123.024 18.6528 122.641 22.3253 124.742 24.3611C129.124 28.6067 147.887 26.5101 150 21C156.481 23.9854 165.73 29.1707 172 23L173 23C177.305 27.0171 186.695 27.0171 191 23L192 23L199 24C204.046 29.206 213.016 24.3514 214 18L210 18C211.069 9.83834 196.315 9.83405 193 15C189.497 12.4829 186.663 11.243 183 14L182 14C176.998 10.2746 172.98 14.075 171 19L170 16L145 12C147.756 0.249916 137.088 1.45749 136 12z"/>
<path style="fill:#000000; stroke:none;" d="M117 9L117 13L118 13L117 9M140 10L141 11L140 10M43 54L43 55L70 55L70 54C49.5215 49.1173 67.6124 23.5733 64 11C53.6844 15.0842 50.8332 29.0432 49.0841 39C48.0987 44.6094 48.4364 50.9041 43 54M19 54L19 55L40 55L40 54C35.2405 51.2195 36.1917 46.8787 36.8696 42C38.2693 31.9268 40.9932 22.2296 41 12C21.0529 13.5047 29.7929 44.477 19 54M110 12L111 13L110 12M123 15L124 16L123 15M122 16C117.174 19.2083 115.593 21.4175 114 27L145 26L145 25C133.237 26.5891 126.588 26.6096 122 16M93.3333 17.6667L93.6667 18.3333L93.3333 17.6667M141 20L144 17L141 20M205 17L206 18L205 17M128 18L129 19L128 18M134 18L135 19L134 18M150 18L151 19L150 18M186 19L187 20L186 19z"/>
<path style="fill:#47c7fe; stroke:none;" d="M146 26L149 35L150 35L149 25L146 26z"/>
<path style="fill:#16449a; stroke:none;" d="M150 25L153 33L152 25L150 25z"/>
<path style="fill:#154cb3; stroke:none;" d="M144 26L148 34L144 26z"/>
<path style="fill:#b6b6b6; stroke:none;" d="M82 28L82 29L128 29C133.062 29 140.943 27.2843 144 32L145 32L144 27L82 28z"/>
<path style="fill:#919191; stroke:none;" d="M85 27L85 28L106 28L85 27M113 27L113 28L143 28L113 27z"/>
<path style="fill:#b6b6b6; stroke:none;" d="M153 27L153 32L154 32L154 29L207 29C191.81 22.6261 169.425 30.0493 153 27z"/>
<path style="fill:#919191; stroke:none;" d="M155 27L155 28L208 29L194 27L155 27z"/>
<path style="fill:#585454; stroke:none;" d="M208 27L208 29L210 29L210 27L208 27z"/>
<path style="fill:#342420; stroke:none;" d="M82 29L82 30L144 30L124 29L82 29M154 29L154 30L211 30L193 29L154 29z"/>
<path style="fill:#e84113; stroke:none;" d="M82 30L82 31L144 31L124 30L82 30M154 30L154 31L210 31L192 30L154 30z"/>
<path style="fill:#f7b1a2; stroke:none;" d="M210 30C193.624 34.8406 171.099 31 154 31L154 32L197 32L210 30M83 31L83 32L144 32L124 31L83 31z"/>
<path style="fill:#0000ff; stroke:none;" d="M148 34L149 35L148 34z"/>
</svg>
